<svg xmlns="http://www.w3.org/2000/svg" id="svg-bomb" viewBox="0 0 459.71 312.87"><title>bomb</title><g id="bomb"><rect x="20.59" y="236.92" width="418.54" height="71.34" rx="11.7" ry="11.7" fill="#d15550" stroke="#4c2412" stroke-miterlimit="10" stroke-width="8"/><rect x="20.59" y="69.68" width="418.54" height="71.34" rx="10.27" ry="10.27" fill="#d15550" stroke="#4c2412" stroke-miterlimit="10" stroke-width="8"/><rect x="4" y="105.35" width="451.71" height="83.62" rx="13.87" ry="13.87" fill="#d15550" stroke="#4c2412" stroke-miterlimit="10" stroke-width="8"/><rect x="4" y="188.97" width="451.71" height="83.62" rx="13.87" ry="13.87" fill="#d15550" stroke="#4c2412" stroke-miterlimit="10" stroke-width="8"/><rect x="113.88" y="70.29" width="42.93" height="238.58" fill="#c1b1b0" stroke="#4c2412" stroke-miterlimit="10" stroke-width="8"/><rect x="302.66" y="70.29" width="42.93" height="238.58" fill="#c1b1b0" stroke="#4c2412" stroke-miterlimit="10" stroke-width="8"/></g><g id="timer"><rect x="69.61" y="154.62" width="320.49" height="128.78" fill="#c1b1b0" stroke="#4c2412" stroke-miterlimit="10" stroke-width="8"/><rect x="156.68" y="174.62" width="146.34" height="88.78" fill="#4c2412"/><rect x="171.55" y="118.41" width="116.37" height="34.26" fill="#4c2412"/><g id="timer-text"><path d="M194.28,236.71c-3.34,0-5.84-1-7.49-3s-2.49-5-2.49-8.91.83-6.91,2.49-8.9,4.15-3,7.49-3,5.82,1,7.47,3,2.47,5,2.47,8.9-.83,6.92-2.47,8.91S197.61,236.71,194.28,236.71Zm0-5.46a2.37,2.37,0,0,0,1.71-.59,3.77,3.77,0,0,0,.91-2,26.4,26.4,0,0,0,0-7.67,3.77,3.77,0,0,0-.91-2,2.38,2.38,0,0,0-1.71-.6,2.45,2.45,0,0,0-1.74.6,3.63,3.63,0,0,0-.92,2,26.4,26.4,0,0,0,0,7.67,3.63,3.63,0,0,0,.92,2A2.45,2.45,0,0,0,194.28,231.25Z" transform="translate(-3.08 -5.58)" fill="#c1b1b0"/><path d="M217.06,236.71c-3.34,0-5.83-1-7.49-3s-2.49-5-2.49-8.91.83-6.91,2.49-8.9,4.15-3,7.49-3,5.83,1,7.47,3,2.47,5,2.47,8.9-.82,6.92-2.47,8.91S220.4,236.71,217.06,236.71Zm0-5.46a2.37,2.37,0,0,0,1.71-.59,3.7,3.7,0,0,0,.91-2,25.5,25.5,0,0,0,0-7.67,3.7,3.7,0,0,0-.91-2,2.38,2.38,0,0,0-1.71-.6,2.44,2.44,0,0,0-1.73.6,3.63,3.63,0,0,0-.93,2,26.4,26.4,0,0,0,0,7.67,3.63,3.63,0,0,0,.93,2A2.44,2.44,0,0,0,217.06,231.25Z" transform="translate(-3.08 -5.58)" fill="#c1b1b0"/><path d="M233.76,218.51a4.25,4.25,0,0,1,2.9.91,3.25,3.25,0,0,1,1,2.56,3.22,3.22,0,0,1-1,2.55,4.2,4.2,0,0,1-2.9.91,4.25,4.25,0,0,1-2.88-.91,3.17,3.17,0,0,1-1-2.55,3.2,3.2,0,0,1,1-2.56A4.3,4.3,0,0,1,233.76,218.51Zm0,11.2a4.25,4.25,0,0,1,2.9.91,3.25,3.25,0,0,1,1,2.56,3.22,3.22,0,0,1-1,2.55,4.2,4.2,0,0,1-2.9.91,4.25,4.25,0,0,1-2.88-.91,3.17,3.17,0,0,1-1-2.55,3.2,3.2,0,0,1,1-2.56A4.3,4.3,0,0,1,233.76,229.71Z" transform="translate(-3.08 -5.58)" fill="#c1b1b0"/><path d="M249.75,236.71a12.63,12.63,0,0,1-6.42-1.45,7.71,7.71,0,0,1-3.49-4.36l6.51-2.69a4.41,4.41,0,0,0,.42,1.92,2.09,2.09,0,0,0,1.07,1,4.14,4.14,0,0,0,1.45.26,3.28,3.28,0,0,0,1.35-.26,2,2,0,0,0,.89-.79,2.35,2.35,0,0,0,.32-1.23,2.14,2.14,0,0,0-.33-1.26,1.78,1.78,0,0,0-.9-.64,3.88,3.88,0,0,0-1.29-.2c-.33,0-.61,0-.86,0l-.86.1v-4.34l.56.06h.7a2.64,2.64,0,0,0,1.89-.56,2.39,2.39,0,0,0,.6-1.82,2.16,2.16,0,0,0-.58-1.62,2.13,2.13,0,0,0-1.59-.58,2.69,2.69,0,0,0-1.84.65,3.3,3.3,0,0,0-.86,2.36l-6.19-2a6.23,6.23,0,0,1,1.59-3.5,8.46,8.46,0,0,1,3.33-2.13,12.92,12.92,0,0,1,4.46-.74,12.57,12.57,0,0,1,4.67.77,6.36,6.36,0,0,1,2.91,2.21,6,6,0,0,1,1,3.5,5.92,5.92,0,0,1-.5,2.59,4.64,4.64,0,0,1-1.28,1.61,5.71,5.71,0,0,1-1.47.86,3.52,3.52,0,0,1-1.09.26v.14a6.44,6.44,0,0,1,1.21.17,5.47,5.47,0,0,1,1.61.67,4.07,4.07,0,0,1,1.4,1.45,4.85,4.85,0,0,1,.58,2.54,6.13,6.13,0,0,1-1.19,3.76,7.5,7.5,0,0,1-3.22,2.43A11.79,11.79,0,0,1,249.75,236.71Z" transform="translate(-3.08 -5.58)" fill="#c1b1b0"/><path d="M271.38,236.71c-3.34,0-5.84-1-7.49-3s-2.49-5-2.49-8.91.83-6.91,2.49-8.9,4.15-3,7.49-3,5.82,1,7.47,3,2.47,5,2.47,8.9-.83,6.92-2.47,8.91S274.71,236.71,271.38,236.71Zm0-5.46a2.37,2.37,0,0,0,1.71-.59,3.7,3.7,0,0,0,.91-2,26.4,26.4,0,0,0,0-7.67,3.7,3.7,0,0,0-.91-2,2.38,2.38,0,0,0-1.71-.6,2.43,2.43,0,0,0-1.73.6,3.56,3.56,0,0,0-.93,2,26.4,26.4,0,0,0,0,7.67,3.56,3.56,0,0,0,.93,2A2.42,2.42,0,0,0,271.38,231.25Z" transform="translate(-3.08 -5.58)" fill="#c1b1b0"/></g></g><g id="wire3-cut"><path d="M324.36,51.81s-6.07-.55-9.13-1.8" transform="translate(-3.08 -5.58)" fill="none" stroke="#c1b1b0" stroke-miterlimit="10" stroke-width="3"/><path d="M285.92,52.26a65.86,65.86,0,0,1,4.81-8" transform="translate(-3.08 -5.58)" fill="none" stroke="#c1b1b0" stroke-miterlimit="10" stroke-width="3"/><path id="wire3-cut-part" d="M320.74,51.42c21.25,3,32.68,3.29,32.68,23.84" transform="translate(-3.08 -5.58)" fill="none" stroke="#4c2412" stroke-miterlimit="10" stroke-width="8"/><path id="wire3-cut-part-2" data-name="wire3-cut-part" d="M266.59,127.52S251.34,113,278.78,64.1c3.55-6.3,6.28-11.13,8.45-14.75" transform="translate(-3.08 -5.58)" fill="none" stroke="#4c2412" stroke-miterlimit="10" stroke-width="8"/></g><g id="wire3"><path id="wire3-2" data-name="wire3" d="M266.59,127.52S251.34,113,278.78,64.1c24.11-42.9,10.46-17.13,42-12.68,21.25,3,32.68,3.29,32.68,23.84" transform="translate(-3.08 -5.58)" fill="none" stroke="#4c2412" stroke-miterlimit="10" stroke-width="8"/></g><g id="wire2-cut"><path d="M234.59,29.36a18.68,18.68,0,0,1,5.33-4" transform="translate(-3.08 -5.58)" fill="none" stroke="#c1b1b0" stroke-miterlimit="10" stroke-width="3"/><path d="M253.31,44.26a36.16,36.16,0,0,0,1-7.93" transform="translate(-3.08 -5.58)" fill="none" stroke="#c1b1b0" stroke-miterlimit="10" stroke-width="3"/><path id="wire2-cut-part" d="M235.34,28.86a26.28,26.28,0,0,0-4,5.08c-7.7,13.91,2.85,28-9.28,41" transform="translate(-3.08 -5.58)" fill="none" stroke="#4c2412" stroke-miterlimit="10" stroke-width="8"/><path id="wire2-cut-part-2" data-name="wire2-cut-part" d="M232.3,127.2s-1.22-40.48,14.51-66.83a50.24,50.24,0,0,0,6.88-18.26" transform="translate(-3.08 -5.58)" fill="none" stroke="#4c2412" stroke-miterlimit="10" stroke-width="8"/></g><g id="wire2"><path id="wire2-part" d="M232.3,127.52S231.08,87,246.81,60.69,249.86,13.37,235.22,29s.49,31.59-13.17,46.28" transform="translate(-3.08 -5.58)" fill="none" stroke="#4c2412" stroke-miterlimit="10" stroke-width="8"/></g><g id="wire1-cut"><path d="M151.36,28.17a20.49,20.49,0,0,1,4-3.75" transform="translate(-3.08 -5.58)" fill="none" stroke="#c1b1b0" stroke-miterlimit="10" stroke-width="3"/><path id="wire1-cut-part1" d="M151.36,28C139.15,43.52,144.19,55.23,117,56.78c-34.26,2-43,13.79-44.26,19.09" transform="translate(-3.08 -5.58)" fill="none" stroke="#4c2412" stroke-miterlimit="10" stroke-width="8"/><path d="M194,37.15c.26-5,.35-3.94,0-6.26" transform="translate(-3.08 -5.58)" fill="none" stroke="#c1b1b0" stroke-miterlimit="10" stroke-width="3"/><path id="wire1-cut-part1-2" data-name="wire1-cut-part1" d="M200.25,127.52s-21-27.81-11.22-59a109.1,109.1,0,0,0,5-32.16" transform="translate(-3.08 -5.58)" fill="none" stroke="#4c2412" stroke-miterlimit="10" stroke-width="8"/></g><g id="wire1"><path id="wire1-part" d="M200.25,127.52s-21-27.81-11.22-59,6.83-74.63-23.9-53.17S151.22,54.83,117,56.78s-43,13.79-44.26,19.09" transform="translate(-3.08 -5.58)" fill="none" stroke="#4c2412" stroke-miterlimit="10" stroke-width="8"/></g></svg>