<?xml version="1.0" encoding="utf-8"?>
<!-- Generator: Adobe Illustrator 22.1.0, SVG Export Plug-In . SVG Version: 6.00 Build 0)  -->
<svg version="1.1" id="Icons" xmlns="http://www.w3.org/2000/svg" xmlns:xlink="http://www.w3.org/1999/xlink" x="0px" y="0px"
	 viewBox="0 0 48 48" style="enable-background:new 0 0 48 48;" xml:space="preserve">
<style type="text/css">
	.st0{opacity:0.15;fill:#45413C;enable-background:new    ;}
	.st1{fill:none;stroke:#45413C;stroke-linecap:round;stroke-linejoin:round;}
	.st2{fill:#525252;}
	.st3{fill:#87898C;}
	.st4{fill:#656769;}
	.st5{fill:#E0E0E0;}
</style>
<title></title>
<g id="_Group_">
	<ellipse id="_Ellipse_" class="st0" cx="24" cy="44.5" rx="11" ry="1.5"/>
	<path class="st1" d="M24,2.5c-9.8,0-17.7,7.9-17.7,17.7c0,0,0,0,0,0c0,12.5,5.7,10.1,5.7,17.6c0,1.4,1.6,2.7,3.1,2.7
		c2.8,0,3.3-1.8,3.5-3.4c0.1-0.6,0.6-1,1.1-1c0.6,0,1.2,0.5,1.2,1.2c0,1.7,1.4,3.1,3.1,3.1s3.1-1.4,3.1-3.1c0-0.6,0.5-1.2,1.2-1.2
		c0.6,0,1.1,0.4,1.1,1c0.2,1.6,0.7,3.4,3.4,3.4c1.4,0,3.1-1.2,3.1-2.7c0-7.5,5.7-5.2,5.7-17.6C41.7,10.4,33.8,2.5,24,2.5z"/>
	<path id="_Path_" class="st2" d="M24.8,29.1c-0.2-0.4-0.8-0.6-1.2-0.4c-0.1,0.1-0.3,0.2-0.4,0.4l-1.2,2.1c-0.2,0.3-0.2,0.6,0,0.9
		c0.2,0.3,0.4,0.4,0.8,0.4h2.3c0.3,0,0.6-0.2,0.8-0.4c0.2-0.3,0.2-0.6,0-0.9L24.8,29.1z"/>
	<g id="_Group_2">
		<circle id="_Ellipse_2" class="st3" cx="16.3" cy="24.3" r="4.2"/>
		<path id="_Path_2" class="st4" d="M16.3,21.9c2,0,3.7,1.4,4.1,3.3c0.1-0.3,0.1-0.6,0.1-0.9c-0.1-2.3-2.1-4.1-4.4-4
			c-2.2,0.1-3.9,1.8-4,4c0,0.3,0,0.6,0.1,0.9C12.6,23.3,14.3,21.9,16.3,21.9z"/>
	</g>
	<g id="_Group_3">
		<circle id="_Ellipse_4" class="st3" cx="31.7" cy="24.3" r="4.2"/>
		<path id="_Path_3" class="st4" d="M31.7,21.9c2,0,3.7,1.4,4.1,3.3c0.1-0.3,0.1-0.6,0.1-0.9c-0.1-2.3-2.1-4.1-4.4-4
			c-2.2,0.1-3.9,1.8-4,4c0,0.3,0,0.6,0.1,0.9C28,23.3,29.7,21.9,31.7,21.9z"/>
	</g>
	<ellipse id="_Ellipse_6" class="st5" cx="24" cy="6" rx="5.3" ry="1.3"/>
</g>
</svg>
