<?xml version="1.0" ?><svg data-name="Layer 1" id="Layer_1" viewBox="0 0 272 272" xmlns="http://www.w3.org/2000/svg"><defs><style>.cls-1{fill:#424242;}</style></defs><title/><polygon class="cls-1" points="125.59 176.56 117.19 177 119.36 168.88 122.73 156.31 126.01 168.53 126.88 171.76 125.59 176.56"/><polygon class="cls-1" points="123.74 183.46 124.84 183.76 122.78 191.49 113.94 189.12 115.55 183.12 123.95 182.67 123.74 183.46"/><polygon class="cls-1" points="132.89 194.19 130.55 193.56 131.63 189.5 132.89 194.19"/><path class="cls-1" d="M172.89,10.26h0c-3.68-3.86-10.34-2.55-11.63,2.28l-24.76,92.4,4.14,15.45L168.31,17.13c5.23,6.24,7.17,14.16,5.21,21.5L146.13,140.85l4.14,15.46,31-115.61C184.08,30.12,180.94,18.7,172.89,10.26Z"/><polygon class="cls-1" points="136.5 195.16 139.63 196 140.11 194.19 136.5 195.16"/><path class="cls-1" d="M124,182.67l-8.4.45-12.69.67A48.35,48.35,0,0,0,58.78,220L56,230.6c-2.1,7.91,2,16.18,9,18.07A40.33,40.33,0,0,0,75.41,250c18.7,0,35.22-13,40.16-31.52l7.21-27,2.06-7.73.31-1.15Zm-16.11,33.8C103,234.71,84.7,245.69,67.08,240.94c-2.46-.66-4.43-4.34-3.38-8.28l2.81-10.57a40.37,40.37,0,0,1,36.77-30.31l11.3-.6Z"/><path class="cls-1" d="M126.5,168.52l7.68-.41L99.48,38.63c-2-7.34,0-15.25,5.21-21.5l40.56,151.36.64,0,7.76.41L111.74,12.53c-1.29-4.83-8-6.13-11.63-2.28h0C92.06,18.7,88.92,30.12,91.76,40.7L133.37,196l.42-.11Z"/><path class="cls-1" d="M131.86,188.65l-.23.85-1.08,4.06-7.22,27.12C117.79,241.48,98.6,256,76.66,256a50.13,50.13,0,0,1-13.08-1.75c-11.46-3.08-18.35-14.65-15.39-25.8L51,217.88c6-22.67,26.16-38.76,50.08-40l16.1-.85,8.4-.44.94,0,2.07-.11-2.1-7.88L136,168h-.2l-9.69.52H126l-6.65.35-18.7,1c-27.34,1.45-50.46,20-57.39,46L40.46,226.4c-4.1,15.41,5.3,31.34,21,35.57a57.72,57.72,0,0,0,15.17,2c25,0,47.77-16.35,54.4-41.26l4.74-17.8.2-.74Z"/><path class="cls-1" d="M213.23,220a48.38,48.38,0,0,0-44.09-36.24l-22.27-1.18,9.56,35.92c4.94,18.56,21.46,31.52,40.16,31.52A40,40,0,0,0,207,248.67c7-1.88,11.14-10.15,9.05-18Zm-8.31,20.91c-17.62,4.75-35.9-6.23-40.76-24.47l-6.73-25.29,11.29.6a40.41,40.41,0,0,1,36.78,30.31l2.81,10.57C209.35,236.6,207.38,240.28,204.92,240.94Z"/><path class="cls-1" d="M231.54,226.4l-2.81-10.57c-6.93-26-30-44.52-57.39-46l-25.44-1.34-9.7-.52-9.7.52,9.7,36.42,4.74,17.8c8,29.89,39.11,47.46,69.58,39.24a29.48,29.48,0,0,0,22-28.25A28.46,28.46,0,0,0,231.54,226.4Zm-23.1,27.85a50.32,50.32,0,0,1-13.1,1.75h0c-21.95,0-41.14-14.52-46.68-35.32L136.78,176l8.68.47,25.45,1.34c23.91,1.27,44,17.36,50.08,40l2.81,10.57a20.51,20.51,0,0,1,.69,5.27A21.46,21.46,0,0,1,208.44,254.25Z"/><circle class="cls-1" cx="136" cy="156" r="4"/></svg>