<svg width="96" height="96" xmlns="http://www.w3.org/2000/svg">

 <g>
  <title>background</title>
  <rect fill="none" id="canvas_background" height="402" width="582" y="-1" x="-1"/>
 </g>
 <g>
  <title>Layer 1</title>
  <path id="svg_1" d="m81.999,14.117c1.53,1.53 1.528,4.01 0,5.539l-5.772,5.775c-1.529,1.529 -4.011,1.529 -5.539,0l-0.117,-0.117c-1.53,-1.53 -1.53,-4.011 -0.002,-5.54l5.774,-5.774c1.529,-1.529 4.011,-1.529 5.539,0l0.117,0.117z"/>
  <path id="svg_2" d="m48.083,0c2.163,0 3.917,1.754 3.917,3.917l0,8.166c0,2.163 -1.754,3.917 -3.917,3.917l-0.166,0c-2.163,0 -3.917,-1.754 -3.917,-3.917l0,-8.166c0,-2.163 1.754,-3.917 3.917,-3.917l0.166,0z"/>
  <path id="svg_3" d="m25.372,19.716c1.562,1.562 1.562,4.095 0,5.657l0,0c-1.562,1.562 -4.095,1.562 -5.656,0l-5.656,-5.656c-1.562,-1.562 -1.562,-4.096 -0.001,-5.658l0,0c1.562,-1.562 4.095,-1.562 5.657,0.001l5.656,5.656z"/>
  <path id="svg_4" d="m12,44c2.209,0 4,1.791 4,4l0,0c0,2.209 -1.791,4 -4,4l-8,0c-2.209,0 -4,-1.791 -4,-4l0,0c0,-2.209 1.791,-4 4,-4l8,0z"/>
  <path id="svg_5" d="m25.432,70.688c1.53,1.529 1.529,4.008 0,5.537l-5.777,5.775c-1.528,1.529 -4.008,1.529 -5.537,0l-0.119,-0.118c-1.529,-1.528 -1.529,-4.009 0,-5.538l5.775,-5.775c1.529,-1.528 4.01,-1.528 5.539,0l0.119,0.119z"/>
  <path id="svg_6" d="m48.084,80c2.163,0 3.916,1.754 3.916,3.916l0,8.168c0,2.162 -1.753,3.916 -3.916,3.916l-0.168,0c-2.163,0 -3.916,-1.754 -3.916,-3.916l0,-8.168c0,-2.162 1.753,-3.916 3.916,-3.916l0.168,0z"/>
  <path id="svg_7" d="m81.999,76.344c1.528,1.529 1.53,4.01 0,5.539l-0.117,0.117c-1.528,1.529 -4.01,1.529 -5.539,0l-5.774,-5.773c-1.528,-1.529 -1.528,-4.011 0.002,-5.541l0.115,-0.115c1.53,-1.53 4.012,-1.53 5.541,-0.002l5.772,5.775z"/>
  <path id="svg_8" d="m92.083,44c2.163,0 3.917,1.754 3.917,3.917l0,0.165c0,2.164 -1.754,3.918 -3.917,3.918l-8.166,0c-2.163,0 -3.917,-1.754 -3.917,-3.917l0,-0.165c0,-2.164 1.754,-3.918 3.917,-3.918l8.166,0z"/>
 </g>
</svg>